<svg width="1455" height="1087" xmlns="http://www.w3.org/2000/svg" xmlns:xlink="http://www.w3.org/1999/xlink" xml:space="preserve" overflow="hidden"><g transform="translate(-300 -657)"><path d="M303.5 676.5C303.5 667.111 311.111 659.5 320.499 659.5L1734.5 659.5C1743.89 659.5 1751.5 667.111 1751.5 676.5L1751.5 812.5C1751.5 821.889 1743.89 829.5 1734.5 829.5L320.499 829.5C311.111 829.5 303.5 821.889 303.5 812.5Z" stroke="#FFFFFF" stroke-width="4.58333" stroke-miterlimit="8" fill="#4472C4" fill-rule="evenodd"/><text font-family="Calibri,Calibri_MSFontService,sans-serif" font-style="italic" font-weight="400" font-size="55" transform="matrix(1 0 0 1 901.012 760)">Application</text><path d="M303.5 858.5C303.5 849.111 311.111 841.5 320.499 841.5L1734.5 841.5C1743.89 841.5 1751.5 849.111 1751.5 858.5L1751.5 994.501C1751.5 1003.89 1743.89 1011.5 1734.5 1011.5L320.499 1011.5C311.111 1011.5 303.5 1003.89 303.5 994.501Z" stroke="#FFFFFF" stroke-width="4.58333" stroke-miterlimit="8" fill="#ED7D31" fill-rule="evenodd"/><text font-family="Calibri,Calibri_MSFontService,sans-serif" font-style="italic" font-weight="400" font-size="55" transform="matrix(1 0 0 1 948.633 904)">Solvers</text><text fill="#FFFFFF" font-family="Cascadia Code,Cascadia Code_MSFontService,sans-serif" font-weight="400" font-size="50" transform="matrix(1 0 0 1 480.537 983)">Mesh, </text><text fill="#FFFFFF" font-family="Cascadia Code,Cascadia Code_MSFontService,sans-serif" font-weight="400" font-size="50" transform="matrix(1 0 0 1 657.775 983)">FlowField</text><text fill="#FFFFFF" font-family="Cascadia Code,Cascadia Code_MSFontService,sans-serif" font-weight="400" font-size="50" transform="matrix(1 0 0 1 923.631 983)">, </text><text fill="#FFFFFF" font-family="Cascadia Code,Cascadia Code_MSFontService,sans-serif" font-weight="400" font-size="50" transform="matrix(1 0 0 1 982.71 983)">ChannelFlowSolver</text><text fill="#FFFFFF" font-family="Cascadia Code,Cascadia Code_MSFontService,sans-serif" font-weight="400" font-size="50" transform="matrix(1 0 0 1 1484.88 983)">, …</text><path d="M303.5 1041.4C303.5 1032.07 311.066 1024.5 320.4 1024.5L1734.6 1024.5C1743.93 1024.5 1751.5 1032.07 1751.5 1041.4L1751.5 1176.6C1751.5 1185.93 1743.93 1193.5 1734.6 1193.5L320.4 1193.5C311.066 1193.5 303.5 1185.93 303.5 1176.6Z" stroke="#FFFFFF" stroke-width="4.58333" stroke-miterlimit="8" fill="#A5A5A5" fill-rule="evenodd"/><text font-family="Calibri,Calibri_MSFontService,sans-serif" font-style="italic" font-weight="400" font-size="55" transform="matrix(1 0 0 1 677.964 1086)">Distributed Spectral Operations</text><text fill="#FFFFFF" font-family="Cascadia Code,Cascadia Code_MSFontService,sans-serif" font-weight="400" font-size="50" transform="matrix(1 0 0 1 598.696 1165)">SpectralGrid</text><text fill="#FFFFFF" font-family="Cascadia Code,Cascadia Code_MSFontService,sans-serif" font-weight="400" font-size="50" transform="matrix(1 0 0 1 953.171 1165)">, </text><text fill="#FFFFFF" font-family="Cascadia Code,Cascadia Code_MSFontService,sans-serif" font-weight="400" font-size="50" transform="matrix(1 0 0 1 1012.25 1165)">SpectralPlan</text><text fill="#FFFFFF" font-family="Cascadia Code,Cascadia Code_MSFontService,sans-serif" font-weight="400" font-size="50" transform="matrix(1 0 0 1 1366.72 1165)">, …</text><path d="M303.5 1223.4C303.5 1214.07 311.066 1206.5 320.4 1206.5L1734.6 1206.5C1743.93 1206.5 1751.5 1214.07 1751.5 1223.4L1751.5 1358.6C1751.5 1367.94 1743.93 1375.5 1734.6 1375.5L320.4 1375.5C311.066 1375.5 303.5 1367.94 303.5 1358.6Z" stroke="#FFFFFF" stroke-width="4.58333" stroke-miterlimit="8" fill="#FFC000" fill-rule="evenodd"/><text font-family="Calibri,Calibri_MSFontService,sans-serif" font-style="italic" font-weight="400" font-size="55" transform="matrix(1 0 0 1 767.236 1268)">Domain Decomposition</text><text fill="#FFFFFF" font-family="Cascadia Code,Cascadia Code_MSFontService,sans-serif" font-weight="400" font-size="50" transform="matrix(1 0 0 1 436.228 1347)">MPIComm3D, </text><text fill="#FFFFFF" font-family="Cascadia Code,Cascadia Code_MSFontService,sans-serif" font-weight="400" font-size="50" transform="matrix(1 0 0 1 761.163 1347)">BlockPartition</text><text fill="#FFFFFF" font-family="Cascadia Code,Cascadia Code_MSFontService,sans-serif" font-weight="400" font-size="50" transform="matrix(1 0 0 1 1174.72 1347)">, </text><text fill="#FFFFFF" font-family="Cascadia Code,Cascadia Code_MSFontService,sans-serif" font-weight="400" font-size="50" transform="matrix(1 0 0 1 1233.8 1347)">PencilPlan</text><text fill="#FFFFFF" font-family="Cascadia Code,Cascadia Code_MSFontService,sans-serif" font-weight="400" font-size="50" transform="matrix(1 0 0 1 1529.19 1347)">, …</text><path d="M303.5 1405.4C303.5 1396.07 311.066 1388.5 320.4 1388.5L1734.6 1388.5C1743.93 1388.5 1751.5 1396.07 1751.5 1405.4L1751.5 1540.6C1751.5 1549.93 1743.93 1557.5 1734.6 1557.5L320.4 1557.5C311.066 1557.5 303.5 1549.93 303.5 1540.6Z" stroke="#FFFFFF" stroke-width="6.875" stroke-miterlimit="8" fill="#70AD47" fill-rule="evenodd"/><text font-family="Calibri,Calibri_MSFontService,sans-serif" font-style="italic" font-weight="400" font-size="55" transform="matrix(1 0 0 1 974.105 1450)">Base</text><text fill="#FFFFFF" font-family="Cascadia Code,Cascadia Code_MSFontService,sans-serif" font-weight="400" font-size="50" transform="matrix(1 0 0 1 554.386 1529)">Logger, </text><text fill="#FFFFFF" font-family="Cascadia Code,Cascadia Code_MSFontService,sans-serif" font-weight="400" font-size="50" transform="matrix(1 0 0 1 790.703 1529)">StreamPool</text><text fill="#FFFFFF" font-family="Cascadia Code,Cascadia Code_MSFontService,sans-serif" font-weight="400" font-size="50" transform="matrix(1 0 0 1 1086.1 1529)">, </text><text fill="#FFFFFF" font-family="Cascadia Code,Cascadia Code_MSFontService,sans-serif" font-weight="400" font-size="50" transform="matrix(1 0 0 1 1145.18 1529)">PoolSpace</text><text fill="#FFFFFF" font-family="Cascadia Code,Cascadia Code_MSFontService,sans-serif" font-weight="400" font-size="50" transform="matrix(1 0 0 1 1411.03 1529)">, …</text><path d="M303.5 1587.5C303.5 1578.11 311.111 1570.5 320.5 1570.5L762.5 1570.5C771.889 1570.5 779.5 1578.11 779.5 1587.5L779.5 1723.5C779.5 1732.89 771.889 1740.5 762.5 1740.5L320.5 1740.5C311.111 1740.5 303.5 1732.89 303.5 1723.5Z" stroke="#FFFFFF" stroke-width="6.875" stroke-miterlimit="8" fill="#5B9BD5" fill-rule="evenodd"/><text fill="#FFFFFF" font-family="Calibri,Calibri_MSFontService,sans-serif" font-weight="400" font-size="55" transform="matrix(1 0 0 1 496.194 1671)">MPI</text><path d="M789.5 1587.5C789.5 1578.11 797.111 1570.5 806.5 1570.5L1248.5 1570.5C1257.89 1570.5 1265.5 1578.11 1265.5 1587.5L1265.5 1723.5C1265.5 1732.89 1257.89 1740.5 1248.5 1740.5L806.5 1740.5C797.111 1740.5 789.5 1732.89 789.5 1723.5Z" stroke="#FFFFFF" stroke-width="6.875" stroke-miterlimit="8" fill="#5B9BD5" fill-rule="evenodd"/><text fill="#FFFFFF" font-family="Calibri,Calibri_MSFontService,sans-serif" font-weight="400" font-size="55" transform="matrix(1 0 0 1 962.268 1671)">CUDA</text><path d="M1275.5 1587.5C1275.5 1578.11 1283.11 1570.5 1292.5 1570.5L1734.5 1570.5C1743.89 1570.5 1751.5 1578.11 1751.5 1587.5L1751.5 1723.5C1751.5 1732.89 1743.89 1740.5 1734.5 1740.5L1292.5 1740.5C1283.11 1740.5 1275.5 1732.89 1275.5 1723.5Z" stroke="#FFFFFF" stroke-width="6.875" stroke-miterlimit="8" fill="#5B9BD5" fill-rule="evenodd"/><text fill="#FFFFFF" font-family="Calibri,Calibri_MSFontService,sans-serif" font-weight="400" font-size="55" transform="matrix(1 0 0 1 1435.55 1671)">Kokkos</text></g></svg>